<svg width="204" height="203" viewBox="0 0 204 203" fill="none" xmlns="http://www.w3.org/2000/svg">
<path d="M127.62 62.346C143.66 86.3685 165.072 102.232 166.972 121.567C168.909 140.946 151.377 163.795 131.728 167.627C112.073 171.493 90.2583 156.314 66.9593 144.912C43.6469 133.465 18.8259 125.758 10.3959 108.676C1.96864 91.5508 9.99131 65.0068 26.0259 40.9978C42.0365 17.0075 66.1474 -4.53637 83.4977 0.828157C100.896 6.14713 111.577 38.3182 127.62 62.346Z" fill="#F7F7F7"/>
<path d="M71.1387 65.1141C71.1387 30.5475 99.1591 2.52441 133.726 2.52441C168.292 2.52441 196.313 30.5475 196.313 65.1141C196.313 99.6807 168.292 127.69 133.726 127.69C99.1591 127.69 71.1387 99.6807 71.1387 65.1141Z" stroke="#E5E5E5" stroke-width="0.819953" stroke-linecap="round" stroke-linejoin="round"/>
<path fill-rule="evenodd" clip-rule="evenodd" d="M99.8617 89.6536C99.3258 91.0684 84.3496 136.632 84.3496 139.987C84.3496 143.342 144.088 178.509 149.158 179.473C151.934 178.267 151.939 172.833 151.939 170.057C151.939 167.281 130.031 151.568 130.031 151.568L99.8617 89.6536Z" fill="#777777"/>
<path d="M107.627 39.9902H85.6543V84.5892H107.627V39.9902Z" fill="#FFAE00"/>
<path fill-rule="evenodd" clip-rule="evenodd" d="M120.249 32.1899C141.522 32.1899 138.864 76.3093 137.605 81.154C134.628 84.8035 108.872 86.5801 99.777 81.154C96.3766 72.8446 100.125 32.1899 120.249 32.1899Z" fill="#E4208C"/>
<path d="M120.248 24.5265C126.565 24.5265 131.687 19.405 131.687 13.0873C131.687 6.76967 126.565 1.64819 120.248 1.64819C113.93 1.64819 108.809 6.76967 108.809 13.0873C108.809 19.405 113.93 24.5265 120.248 24.5265Z" fill="#FFB5DF"/>
<path d="M111.998 2.76831C114.112 6.542 117.32 9.58635 121.199 11.4998C125.078 13.4133 129.446 14.106 133.727 13.4866" stroke="#9F0056" stroke-width="1.03164" stroke-linecap="round" stroke-linejoin="round"/>
<path d="M118.789 16.0776C118.403 14.9603 118.521 13.9099 119.033 13.7303C119.544 13.5508 120.284 14.3118 120.67 15.4292C121.056 16.5466 120.938 17.597 120.426 17.7738C119.914 17.9507 119.172 17.1924 118.789 16.0776Z" stroke="#9F0056" stroke-width="1.03164" stroke-linecap="round" stroke-linejoin="round"/>
<path d="M148.385 176.877C147.015 180.36 144.033 189.203 151.147 198.313L161.062 173.147L151.351 169.35L148.385 176.877Z" fill="#777777"/>
<path fill-rule="evenodd" clip-rule="evenodd" d="M78.9434 54.3957C78.9434 53.0708 79.3362 51.7756 80.0723 50.674C80.8084 49.5724 81.8547 48.7137 83.0787 48.2067C84.3028 47.6997 85.6498 47.567 86.9492 47.8255C88.2487 48.084 89.4423 48.722 90.3792 49.6589C91.3161 50.5957 91.9541 51.7894 92.2126 53.0888C92.471 54.3883 92.3384 55.7352 91.8314 56.9593C91.3243 58.1834 90.4657 59.2296 89.3641 59.9657C88.2624 60.7018 86.9673 61.0947 85.6423 61.0947C83.8667 61.0912 82.1649 60.3842 80.9093 59.1287C79.6538 57.8732 78.9469 56.1713 78.9434 54.3957Z" fill="#FFB5DF"/>
<path fill-rule="evenodd" clip-rule="evenodd" d="M99.8613 89.6536C102.627 90.7254 128.166 93.1638 136.572 89.6536C137.421 96.4624 136.617 203 136.617 203H106.769C106.769 199.058 112.664 192.014 124.677 191.896C123.962 186.526 99.8613 89.6536 99.8613 89.6536Z" fill="#C2C2C2"/>
<path d="M61.606 21.0884H52.273C49.2659 21.0884 46.8281 23.5261 46.8281 26.5333V35.8663C46.8281 38.8734 49.2659 41.3112 52.273 41.3112H61.606C64.6132 41.3112 67.051 38.8734 67.051 35.8663V26.5333C67.051 23.5261 64.6132 21.0884 61.606 21.0884Z" fill="#E4208C"/>
<path d="M67.0501 25.5526C69.5156 25.5526 71.5143 23.554 71.5143 21.0885C71.5143 18.623 69.5156 16.6243 67.0501 16.6243C64.5846 16.6243 62.5859 18.623 62.5859 21.0885C62.5859 23.554 64.5846 25.5526 67.0501 25.5526Z" fill="#FFAE00"/>
<path d="M126.876 33.9263C125.869 36.1709 125.355 38.6052 125.367 41.0652C125.38 43.5253 125.92 45.9541 126.95 48.1882C127.98 50.4222 129.476 52.4098 131.339 54.0172C133.201 55.6245 135.386 56.8143 137.747 57.5066" stroke="#FFAE00" stroke-width="1.37731" stroke-linecap="round" stroke-linejoin="round"/>
<path d="M98.6641 69.3613C102.322 69.3625 105.885 68.1986 108.836 66.0384C111.788 63.8782 113.975 60.834 115.08 57.3472C116.184 53.8604 116.15 50.1123 114.981 46.6465C113.812 43.1806 111.569 40.1772 108.579 38.0718" stroke="#FFAE00" stroke-width="1.37731" stroke-linecap="round" stroke-linejoin="round"/>
<path d="M138.384 66.0841C135.527 64.289 132.206 63.3723 128.834 63.4479C125.461 63.5236 122.185 64.5881 119.412 66.5095C116.638 68.4309 114.491 71.1245 113.235 74.2557C111.98 77.387 111.671 80.8181 112.349 84.1231" stroke="#FFAE00" stroke-width="1.37731" stroke-linecap="round" stroke-linejoin="round"/>
<path fill-rule="evenodd" clip-rule="evenodd" d="M117.416 66.7619L108.517 65.0175L106.387 49.6206L115.286 51.365L117.416 66.7619Z" fill="#383838"/>
<path fill-rule="evenodd" clip-rule="evenodd" d="M111.902 65.114C111.902 63.7891 112.295 62.4939 113.031 61.3923C113.767 60.2906 114.814 59.432 116.038 58.925C117.262 58.4179 118.609 58.2853 119.908 58.5438C121.208 58.8022 122.401 59.4403 123.338 60.3771C124.275 61.314 124.913 62.5076 125.172 63.8071C125.43 65.1066 125.297 66.4535 124.79 67.6776C124.283 68.9017 123.425 69.9479 122.323 70.684C121.221 71.4201 119.926 71.813 118.601 71.813C116.826 71.8094 115.124 71.1025 113.868 69.847C112.613 68.5914 111.906 66.8896 111.902 65.114Z" fill="#FFB5DF"/>
<path d="M124.537 39.2373C128.824 43.1763 131.236 49.9958 132.495 57.1905" stroke="white" stroke-width="4.34896" stroke-linecap="round" stroke-linejoin="round"/>
</svg>
