<?xml version="1.0" encoding="utf-8"?>
<!-- Generator: Adobe Illustrator 16.0.0, SVG Export Plug-In . SVG Version: 6.00 Build 0)  -->
<!DOCTYPE svg PUBLIC "-//W3C//DTD SVG 1.1//EN" "http://www.w3.org/Graphics/SVG/1.1/DTD/svg11.dtd">
<svg version="1.1" id="Layer_1" xmlns="http://www.w3.org/2000/svg" xmlns:xlink="http://www.w3.org/1999/xlink" x="0px" y="0px"
	 width="724px" height="710.27px" viewBox="0 0 724 710.27" enable-background="new 0 0 724 710.27" xml:space="preserve">
<g>
	<path fill="#FFE9F6" d="M590.309,180.419c67.542,82.531,129.794,172.019,125.021,267.384
		c-4.773,95.367-76.744,196.608-167.938,230.825c-91.421,34.228-202.123,1.614-289.656-51.686
		c-87.765-53.141-152.132-126.916-181.142-219.074c-28.999-92.336-22.453-202.846,33.599-282.708
		C166.073,45.482,271.643-3.355,360.775,9.839C449.908,23.033,522.961,98.062,590.309,180.419z"/>
	<path fill="none" stroke="#E5E5E5" stroke-width="1.838" stroke-linecap="round" stroke-linejoin="round" d="M90.557,109.815
		L29.803,387.367l323.173-69.732L90.557,109.815z"/>
	<path fill="#FFB5DF" d="M244.771,258.685c0-8.391,2.518-16.594,7.234-23.571c4.717-6.978,11.422-12.415,19.266-15.627
		c7.844-3.211,16.476-4.051,24.802-2.413c8.328,1.635,15.978,5.677,21.979,11.611c6.005,5.933,10.092,13.494,11.749,21.723
		c1.657,8.23,0.808,16.761-2.442,24.513c-3.25,7.754-8.752,14.38-15.812,19.041c-7.06,4.662-15.358,7.152-23.849,7.152
		c-11.385,0-22.305-4.47-30.354-12.426C249.295,280.728,244.771,269.938,244.771,258.685z"/>
</g>
</svg>
