<?xml version="1.0" encoding="utf-8"?>
<!-- Generator: Adobe Illustrator 16.0.0, SVG Export Plug-In . SVG Version: 6.00 Build 0)  -->
<!DOCTYPE svg PUBLIC "-//W3C//DTD SVG 1.1//EN" "http://www.w3.org/Graphics/SVG/1.1/DTD/svg11.dtd">
<svg version="1.1" id="Layer_1" xmlns="http://www.w3.org/2000/svg" xmlns:xlink="http://www.w3.org/1999/xlink" x="0px" y="0px"
	 width="937px" height="642.023px" viewBox="0 0 937 642.023" enable-background="new 0 0 937 642.023" xml:space="preserve">
<g>
	<path fill="#0B0B0B" d="M654.501,128.119c115.882,39.085,227.65,86.063,256.877,165.9
		c29.229,79.838-24.303,192.607-126.909,258.713c-102.894,66.212-254.867,85.938-385.209,79.08
		c-130.572-6.628-239.207-39.897-309.945-102.969c-70.792-63.229-103.38-156.168-62.065-244.82
		c41.165-88.43,156.539-172.489,274.073-199.037C418.857,58.439,538.929,89.095,654.501,128.119z"/>
	<path d="M246.539,295.467c14.375,0,31.939-3.59,43.123-13.166v45.877c-12.379,5.979-29.548,8.771-43.123,8.771
		c-48.298,0-85.039-30.711-85.039-80.574c0-41.488,31.939-78.186,74.66-78.186c27.949,0,57.096,10.771,57.096,43.481
		c0,17.946-12.379,31.113-30.347,31.113c-13.575,0-28.749-12.368-28.749-26.328c0.043-2.28,0.311-4.551,0.799-6.778
		c-22.361,0.396-31.945,16.751-31.945,36.697c0,25.133,19.969,39.063,43.52,39.063"/>
	<path d="M499.439,290.279v36.697c-9.578,7.181-22.758,9.973-34.734,9.973c-16.369,0-31.939-9.973-39.098-27.121
		c-11.58,18.35-29.945,27.121-51.507,27.121c-44.716,0-73.465-36.295-73.465-79.379c0-42.684,28.749-78.984,73.465-78.984
		c18.767,0,35.136,6.383,47.113,20.744v-17.55h45.515v100.532c0,9.191,7.188,14.361,15.974,14.361
		c5.985,0,11.978-2.391,16.767-6.383 M421.214,273.138v-31.124c-5.589-15.16-19.963-25.932-36.333-25.932
		c-22.355,0-39.098,19.531-39.098,41.488c0,21.955,16.772,41.487,39.098,41.487c15.972,0,30.744-10.771,36.333-25.931"/>
	<path d="M623.982,211.494c-0.021,8.352-3.352,16.355-9.262,22.262c-5.912,5.905-13.922,9.232-22.281,9.254
		c-9.199,0-17.969-4.389-23.953-11.57c-7.987,4.389-12.776,13.563-15.174,25.529v78.186h-45.515V183.575h45.515v21.938
		c8.383-13.965,22.758-25.133,39.127-25.133C610.005,180.381,623.982,194.346,623.982,211.494z"/>
	<path d="M698.205,294.879c-8.383,0-15.967-5.17-15.967-14.361v-34.865c-6.491,4.738-14.322,7.291-22.361,7.291
		c-8.173,0.002-16.135-2.594-22.734-7.411v40.96c0,24.73,17.169,48.662,43.52,48.662c11.58,0,24.725-2.791,34.338-9.973v-36.686
		c-4.606,4.131-10.583,6.404-16.771,6.383"/>
	<path d="M628.333,209.705c0.021-8.352,3.352-16.355,9.262-22.262c5.911-5.905,13.922-9.232,22.281-9.254
		c17.168,0,31.141,14.361,31.141,31.516c0,17.153-13.973,31.516-31.141,31.516c-8.359-0.021-16.37-3.349-22.281-9.254
		C631.685,226.061,628.354,218.057,628.333,209.705z"/>
</g>
</svg>
